HIERARCHY
ROOT Hips
{
	OFFSET 0.000000 0.000000 0.000000
	CHANNELS 6 Xposition Yposition Zposition Xrotation Yrotation Zrotation
	JOINT Spine
	{
		OFFSET 0.000000 -0.744707 -0.000000
		CHANNELS 6 Xposition Yposition Zposition Xrotation Yrotation Zrotation
		JOINT Spine1
		{
			OFFSET 0.000000 -2.032240 -0.000000
			CHANNELS 6 Xposition Yposition Zposition Xrotation Yrotation Zrotation
			JOINT Neck
			{
				OFFSET 0.000000 -2.213880 -0.000000
				CHANNELS 6 Xposition Yposition Zposition Xrotation Yrotation Zrotation
				JOINT Head
				{
					OFFSET 0.000000 -1.407680 -0.181636
					CHANNELS 6 Xposition Yposition Zposition Xrotation Yrotation Zrotation
					End Site
					{
						OFFSET 0.000000 -1.816356 -0.000000
					}
				}
			}
			JOINT LeftShoulder
			{
				OFFSET 0.365767 -1.787590 0.048012
				CHANNELS 6 Xposition Yposition Zposition Xrotation Yrotation Zrotation
				JOINT LeftArm
				{
					OFFSET 1.305160 0.000000 0.000000
					CHANNELS 6 Xposition Yposition Zposition Xrotation Yrotation Zrotation
					JOINT LeftForeArm
					{
						OFFSET 2.559210 0.000000 0.000000
						CHANNELS 6 Xposition Yposition Zposition Xrotation Yrotation Zrotation
						JOINT LeftHand
						{
							OFFSET 2.378450 0.000000 0.000000
							CHANNELS 6 Xposition Yposition Zposition Xrotation Yrotation Zrotation
							End Site
							{
								OFFSET 1.362267 0.000000 0.000000
							}
						}
					}
				}
			}
			JOINT RightShoulder
			{
				OFFSET -0.360721 -1.787590 0.048012
				CHANNELS 6 Xposition Yposition Zposition Xrotation Yrotation Zrotation
				JOINT RightArm
				{
					OFFSET -1.305160 0.000000 0.000000
					CHANNELS 6 Xposition Yposition Zposition Xrotation Yrotation Zrotation
					JOINT RightForeArm
					{
						OFFSET -2.559210 0.000000 0.000000
						CHANNELS 6 Xposition Yposition Zposition Xrotation Yrotation Zrotation
						JOINT RightHand
						{
							OFFSET -2.378450 0.000000 0.000000
							CHANNELS 6 Xposition Yposition Zposition Xrotation Yrotation Zrotation
							End Site
							{
								OFFSET -1.362267 0.000000 0.000000
							}
						}
					}
				}
			}
		}
	}
	JOINT LeftUpLeg
	{
		OFFSET 0.908180 0.000000 0.000000
		CHANNELS 6 Xposition Yposition Zposition Xrotation Yrotation Zrotation
		JOINT LeftLeg
		{
			OFFSET 0.000000 3.819490 0.000002
			CHANNELS 6 Xposition Yposition Zposition Xrotation Yrotation Zrotation
			JOINT LeftFoot
			{
				OFFSET 0.000000 4.004300 0.000002
				CHANNELS 6 Xposition Yposition Zposition Xrotation Yrotation Zrotation
				JOINT LeftToeBase
				{
					OFFSET 0.000000 0.590317 -1.362270
					CHANNELS 6 Xposition Yposition Zposition Xrotation Yrotation Zrotation
					End Site
					{
						OFFSET 0.000000 0.000000 -0.363271
					}
				}
			}
		}
	}
	JOINT RightUpLeg
	{
		OFFSET -0.908180 0.000000 0.000000
		CHANNELS 6 Xposition Yposition Zposition Xrotation Yrotation Zrotation
		JOINT RightLeg
		{
			OFFSET 0.000000 3.819490 0.000002
			CHANNELS 6 Xposition Yposition Zposition Xrotation Yrotation Zrotation
			JOINT RightFoot
			{
				OFFSET 0.000000 4.004300 0.000002
				CHANNELS 6 Xposition Yposition Zposition Xrotation Yrotation Zrotation
				JOINT RightToeBase
				{
					OFFSET 0.000000 0.590317 -1.362270
					CHANNELS 6 Xposition Yposition Zposition Xrotation Yrotation Zrotation
					End Site
					{
						OFFSET 0.000000 0.000000 -0.363271
					}
				}
			}
		}
	}
}
MOTION
Frames: 8
Frame Time: 0.016667
-1.660254 -7.952991 -1.982769 7.394870 2.552879 0.328126 -0.000000 -0.744707 -0.000000 -21.889605 -10.760332 1.508395 0.000000 -2.032239 -0.000000 20.974172 -5.194783 -9.198083 0.000000 -2.213881 -0.000000 0.468701 2.244817 -7.037008 0.000000 -1.407681 -0.181636 7.370827 1.329972 1.256914 0.365767 -1.787591 0.048012 -2.998127 -0.708674 -13.430710 1.305160 0.000001 -0.000000 3.118286 13.156952 47.997201 2.559210 0.000002 -0.000000 1045.192484 75.710215 -1077.277653 2.378450 0.000000 -0.000001 -35.857523 -16.517696 -21.563928 -0.360721 -1.787590 0.048012 -4.502179 -7.864445 7.374009 -1.305160 0.000001 -0.000000 -18.931966 -35.026590 -54.415390 -2.559209 -0.000000 -0.000001 76.394061 -51.871957 131.581600 -2.378449 0.000001 -0.000000 -18.441734 0.651999 56.789413 0.908180 0.000001 -0.000000 -9.055548 -1.870921 -1.218710 -0.000000 3.819490 0.000001 10.490941 -4.940331 -2.363793 0.000000 4.004299 0.000001 -5.114825 -21.944088 -3.585550 0.000000 0.590316 -1.362270 -0.000000 0.000001 -0.000001 -0.908180 0.000001 -0.000000 -18.860273 -6.739436 16.956974 -0.000000 3.819489 0.000001 20.626876 -15.421838 -5.422886 -0.000000 4.004299 0.000000 2.090798 47.841217 -4.732417 -0.000001 0.590318 -1.362269 0.000003 0.000003 0.000002 
-1.642591 -7.954000 -1.976745 7.374642 2.705424 0.330469 -0.000000 -0.744707 0.000000 -21.838242 -10.604117 1.425196 0.000000 -2.032238 -0.000001 20.899365 -5.108923 -9.019885 -0.000000 -2.213881 -0.000000 0.689905 2.000972 -7.224207 0.000000 -1.407682 -0.181636 7.186483 1.049204 1.518123 0.365767 -1.787592 0.048012 -3.214111 -0.375121 -13.350671 1.305161 0.000001 -0.000000 1.107987 12.173614 47.953659 2.559210 0.000002 -0.000000 1046.680045 75.582552 -1079.616419 2.378450 0.000001 -0.000001 -36.545429 -16.056815 -24.602458 -0.360721 -1.787591 0.048012 -4.334189 -7.747287 7.331896 -1.305161 0.000002 -0.000000 -19.157487 -34.884119 -55.057448 -2.559209 0.000001 0.000000 76.632537 -51.830170 131.353513 -2.378449 0.000000 0.000001 -17.944669 0.831200 56.925505 0.908180 0.000000 0.000000 -9.136193 -1.909686 -1.127569 0.000000 3.819491 0.000001 10.628645 -5.262178 -2.326238 0.000000 4.004299 0.000001 -5.165120 -21.737647 -3.628077 0.000000 0.590316 -1.362270 0.000001 0.000003 0.000000 -0.908180 0.000001 0.000000 -18.992541 -7.128809 16.786679 0.000000 3.819490 0.000002 21.031910 -14.962535 -5.695351 -0.000000 4.004300 0.000001 0.776761 47.968316 -3.828408 -0.000001 0.590316 -1.362270 0.000004 0.000003 -0.000001 
-1.626782 -7.955176 -1.970095 7.321686 2.833917 0.349237 0.000000 -0.744706 -0.000000 -21.741819 -10.400434 1.369422 -0.000000 -2.032239 0.000000 20.833248 -5.013478 -8.878949 0.000000 -2.213879 -0.000000 0.913690 1.722568 -7.353844 0.000000 -1.407678 -0.181636 6.976140 0.742257 1.740576 0.365767 -1.787588 0.048012 -3.525585 -0.006491 -13.291599 1.305160 0.000000 0.000000 -0.528919 11.355745 47.812622 2.559211 0.000000 -0.000000 1048.048050 75.474765 -1082.010483 2.378449 -0.000000 -0.000000 -37.351835 -15.527796 -27.653564 -0.360721 -1.787591 0.048012 -4.213166 -7.687317 7.314265 -1.305160 -0.000000 -0.000000 -19.073764 -34.946321 -55.558521 -2.559210 -0.000001 -0.000001 76.446612 -51.691114 130.961774 -2.378452 0.000002 -0.000001 -17.537267 1.015188 57.169978 0.908180 0.000001 -0.000000 -9.218505 -1.790679 -1.161724 -0.000000 3.819491 0.000002 10.870454 -5.235835 -2.086895 0.000000 4.004300 0.000001 -5.300348 -21.941243 -3.802484 0.000000 0.590316 -1.362270 -0.000000 0.000005 0.000001 -0.908180 0.000000 -0.000000 -19.057088 -7.533109 16.579424 0.000000 3.819489 0.000002 21.401681 -14.383468 -5.948178 0.000000 4.004301 0.000001 -0.215490 47.941952 -3.305395 -0.000000 0.590316 -1.362271 0.000001 0.000001 0.000001 
-1.611688 -7.956424 -1.964397 7.277464 2.947426 0.371975 -0.000000 -0.744706 -0.000000 -21.665548 -10.162218 1.304433 -0.000000 -2.032242 -0.000001 20.766200 -4.904459 -8.723775 -0.000000 -2.213880 -0.000001 1.156175 1.426589 -7.514966 0.000000 -1.407683 -0.181636 6.772876 0.408398 2.046778 0.365767 -1.787590 0.048012 -3.749761 0.288891 -13.228548 1.305160 0.000001 -0.000000 -2.234535 10.564778 47.489718 2.559210 0.000000 0.000000 1048.946247 75.266082 -1083.683715 2.378449 -0.000001 0.000000 -38.040076 -14.982227 -30.776143 -0.360721 -1.787591 0.048012 -4.009314 -7.589457 7.298452 -1.305160 0.000002 -0.000000 -19.074246 -35.037262 -56.044065 -2.559209 -0.000000 -0.000001 76.365968 -51.670723 130.554380 -2.378449 0.000001 -0.000000 -17.084735 1.064548 57.430403 0.908180 0.000001 0.000000 -9.313789 -1.804546 -1.181050 -0.000000 3.819491 0.000002 11.103170 -5.196720 -1.907911 -0.000000 4.004300 0.000001 -5.405536 -22.051607 -3.918915 -0.000000 0.590316 -1.362270 0.000003 0.000002 0.000000 -0.908180 0.000000 0.000000 -19.081646 -7.913503 16.372276 0.000000 3.819489 0.000002 21.688852 -14.226954 -6.117171 -0.000000 4.004301 0.000001 -1.039192 47.935275 -2.740024 -0.000000 0.590316 -1.362271 0.000004 0.000001 0.000003 
-1.597036 -7.957080 -1.959502 7.203846 3.060145 0.391258 -0.000000 -0.744706 -0.000000 -21.532194 -9.910786 1.264870 0.000000 -2.032239 -0.000001 20.653792 -4.792311 -8.601375 0.000000 -2.213882 -0.000000 1.395556 1.112785 -7.675307 -0.000000 -1.407679 -0.181637 6.605626 0.053880 2.394194 0.365767 -1.787592 0.048012 -4.018202 0.613802 -13.206248 1.305161 0.000001 -0.000000 -3.745434 9.782863 47.077239 2.559211 -0.000000 0.000000 1050.290975 74.972377 -1085.690151 2.378448 -0.000000 -0.000001 -38.481395 -14.496452 -33.659725 -0.360721 -1.787591 0.048012 -3.797138 -7.443154 7.256671 -1.305160 0.000003 -0.000000 -18.872839 -35.333214 -56.383697 -2.559211 -0.000000 -0.000001 75.976436 -51.524953 129.949526 -2.378448 0.000002 0.000001 -16.684820 1.404300 57.566965 0.908180 0.000002 -0.000000 -9.368397 -1.971094 -1.164736 -0.000000 3.819491 0.000002 11.295693 -5.321636 -1.821441 0.000000 4.004298 0.000001 -5.498135 -21.871020 -4.004128 -0.000000 0.590316 -1.362270 0.000004 -0.000000 -0.000002 -0.908180 0.000002 -0.000000 -19.083822 -8.241848 16.174880 0.000000 3.819488 0.000001 21.988307 -14.140360 -6.375070 0.000000 4.004301 0.000001 -2.049116 47.964641 -2.020346 -0.000001 0.590317 -1.362269 0.000004 0.000003 0.000001 
-1.583374 -7.957637 -1.955320 7.126541 3.153636 0.401417 -0.000000 -0.744706 0.000000 -21.418203 -9.625964 1.255256 0.000000 -2.032238 0.000000 20.581918 -4.677386 -8.517475 0.000000 -2.213883 -0.000000 1.616185 0.776728 -7.764478 -0.000000 -1.407679 -0.181637 6.445724 -0.315424 2.709661 0.365767 -1.787592 0.048012 -4.282710 0.918664 -13.156723 1.305160 0.000001 -0.000000 -4.949260 9.261345 46.511365 2.559209 0.000001 0.000000 1051.893064 74.607577 -1088.136452 2.378449 -0.000001 -0.000001 -38.888754 -13.693214 -36.822216 -0.360721 -1.787592 0.048012 -3.616269 -7.386184 7.274586 -1.305161 -0.000001 0.000000 -18.588971 -35.722060 -56.632643 -2.559209 0.000000 -0.000001 75.332315 -51.363501 129.241208 -2.378452 0.000000 0.000001 -16.286426 1.541120 57.991817 0.908180 0.000001 0.000000 -9.435331 -2.189245 -1.109289 0.000000 3.819490 0.000001 11.502879 -5.511457 -1.821013 0.000000 4.004300 0.000001 -5.561285 -21.582158 -3.998330 0.000000 0.590317 -1.362270 0.000003 -0.000001 0.000001 -0.908180 0.000002 -0.000000 -19.064335 -8.564521 15.986758 0.000000 3.819490 0.000001 22.180548 -14.278832 -6.494187 0.000000 4.004301 0.000001 -2.803841 47.928090 -1.110173 0.000000 0.590317 -1.362270 0.000003 -0.000003 0.000001 
-1.570978 -7.957819 -1.951319 7.083899 3.241576 0.397260 -0.000000 -0.744706 -0.000000 -21.328352 -9.348208 1.256142 0.000000 -2.032238 0.000000 20.486290 -4.559671 -8.418218 0.000000 -2.213882 -0.000000 1.877242 0.472214 -7.942934 0.000000 -1.407684 -0.181636 6.259578 -0.671730 3.191360 0.365767 -1.787591 0.048012 -4.572281 1.235611 -13.160534 1.305160 -0.000001 -0.000000 -6.067605 8.717860 45.812374 2.559208 0.000001 0.000000 1053.983430 74.057262 -1090.789953 2.378450 -0.000001 -0.000001 -38.848743 -12.821011 -39.984587 -0.360721 -1.787591 0.048012 -3.463556 -7.333519 7.248455 -1.305160 0.000001 -0.000000 -18.184440 -35.956332 -56.830319 -2.559210 -0.000000 -0.000001 74.941846 -51.224851 128.577437 -2.378450 0.000003 -0.000001 -15.784518 1.778539 58.331052 0.908180 0.000002 -0.000000 -9.514786 -2.263139 -1.131800 -0.000000 3.819491 0.000002 11.716646 -5.590798 -1.632716 0.000000 4.004300 0.000001 -5.679224 -21.491122 -4.100580 -0.000000 0.590318 -1.362270 0.000002 0.000003 0.000002 -0.908180 0.000002 -0.000000 -19.084433 -8.828277 15.788710 0.000000 3.819490 0.000001 22.448224 -14.920140 -6.596791 0.000000 4.004299 0.000001 -3.926251 48.152256 0.119467 0.000001 0.590316 -1.362270 0.000003 0.000002 -0.000001 
-1.559341 -7.957623 -1.947052 7.065645 3.327462 0.391087 0.000000 -0.744707 -0.000000 -21.225472 -9.084845 1.290452 0.000000 -2.032238 -0.000000 20.329631 -4.451554 -8.381604 0.000000 -2.213881 -0.000000 2.120611 0.155290 -8.063265 0.000000 -1.407678 -0.181636 6.112241 -1.032043 3.626124 0.365767 -1.787591 0.048012 -4.861436 1.570744 -13.181752 1.305160 -0.000000 0.000000 -7.020170 8.228103 45.046050 2.559210 -0.000001 0.000000 1056.378258 73.368997 -1093.700160 2.378449 -0.000001 -0.000002 -38.589927 -12.097912 -42.661601 -0.360721 -1.787591 0.048012 -3.217727 -7.205124 7.272324 -1.305160 0.000000 -0.000000 -17.707187 -36.349218 -56.949400 -2.559211 0.000000 -0.000001 74.491785 -51.093117 127.937926 -2.378450 0.000002 -0.000000 -15.405039 2.048909 58.460805 0.908180 0.000001 -0.000000 -9.635518 -2.338326 -1.171156 0.000000 3.819490 0.000002 11.985389 -5.552125 -1.447748 0.000000 4.004298 0.000002 -5.822184 -21.430055 -4.219854 -0.000000 0.590316 -1.362269 -0.000000 -0.000001 0.000003 -0.908180 0.000001 -0.000000 -19.136790 -9.097618 15.595371 0.000000 3.819490 0.000001 22.664463 -15.648035 -6.622897 -0.000001 4.004300 0.000001 -4.843882 48.368213 0.962527 -0.000000 0.590316 -1.362270 0.000006 0.000002 -0.000000 
